<?xml version="1.0" encoding="UTF-8" standalone="no"?>
<!-- Created with Inkscape (http://www.inkscape.org/) -->

<svg
   xmlns:dc="http://purl.org/dc/elements/1.1/"
   xmlns:cc="http://creativecommons.org/ns#"
   xmlns:rdf="http://www.w3.org/1999/02/22-rdf-syntax-ns#"
   xmlns:svg="http://www.w3.org/2000/svg"
   xmlns="http://www.w3.org/2000/svg"
   xmlns:xlink="http://www.w3.org/1999/xlink"
   xmlns:sodipodi="http://sodipodi.sourceforge.net/DTD/sodipodi-0.dtd"
   xmlns:inkscape="http://www.inkscape.org/namespaces/inkscape"
   width="100.09449"
   height="100.3622"
   viewBox="0 0 100.09449 100.3622"
   id="svg4849"
   version="1.1"
   inkscape:version="0.91 r13725"
   sodipodi:docname="blue-mushroom.svg"
   inkscape:export-filename="C:\Users\Yavor\Desktop\Bad Mushrooms\images\blue-mushroom.png"
   inkscape:export-xdpi="90"
   inkscape:export-ydpi="90">
  <defs
     id="defs4851">
    <linearGradient
       inkscape:collect="always"
       id="linearGradient5435">
      <stop
         style="stop-color:#ffffff;stop-opacity:1;"
         offset="0"
         id="stop5437" />
      <stop
         style="stop-color:#ffffff;stop-opacity:0;"
         offset="1"
         id="stop5439" />
    </linearGradient>
    <linearGradient
       inkscape:collect="always"
       xlink:href="#linearGradient5435"
       id="linearGradient5441"
       x1="367.22314"
       y1="431.43906"
       x2="300.35712"
       y2="486.62274"
       gradientUnits="userSpaceOnUse"
       gradientTransform="matrix(-0.15071617,0.00665042,0.00742134,0.16818715,99.139902,924.35499)" />
    <linearGradient
       inkscape:collect="always"
       xlink:href="#linearGradient5435"
       id="linearGradient5441-3"
       x1="355.7998"
       y1="471.74261"
       x2="319.5264"
       y2="451.73953"
       gradientUnits="userSpaceOnUse"
       gradientTransform="matrix(-0.06916917,-0.16548176,-0.24134746,0.05905897,178.16736,1004.7822)" />
  </defs>
  <sodipodi:namedview
     id="base"
     pagecolor="#ffffff"
     bordercolor="#666666"
     borderopacity="1.0"
     inkscape:pageopacity="0.0"
     inkscape:pageshadow="2"
     inkscape:zoom="2.8284271"
     inkscape:cx="73.932768"
     inkscape:cy="92.494945"
     inkscape:document-units="px"
     inkscape:current-layer="layer1"
     showgrid="false"
     inkscape:window-width="1280"
     inkscape:window-height="737"
     inkscape:window-x="-8"
     inkscape:window-y="-8"
     inkscape:window-maximized="1"
     units="px" />
  <metadata
     id="metadata4854">
    <rdf:RDF>
      <cc:Work
         rdf:about="">
        <dc:format>image/svg+xml</dc:format>
        <dc:type
           rdf:resource="http://purl.org/dc/dcmitype/StillImage" />
        <dc:title></dc:title>
      </cc:Work>
    </rdf:RDF>
  </metadata>
  <g
     inkscape:label="Layer 1"
     inkscape:groupmode="layer"
     id="layer1"
     transform="translate(0,-951.99996)">
    <path
       style="fill:#ffe680;fill-opacity:1;stroke:#000000;stroke-width:0.81732124;stroke-linejoin:bevel;stroke-miterlimit:4;stroke-dasharray:none;stroke-opacity:1"
       d="m 55.808712,988.48996 -13.11254,0 c -2.67634,0 -6.18982,1.42779 -4.83093,2.73143 1.57274,1.5088 5.16453,5.67035 0.55543,20.88421 -0.40544,1.3383 -1.19937,2.996 -0.55543,4.2839 0.82727,1.6546 2.1936,2.2762 4.83093,2.7314 4.13303,0.7135 8.68042,0.1839 13.11254,0 2.67404,-0.1109 4.09903,-1.0324 4.83094,-2.7314 0.68786,-1.5967 -1.25322,-5.0629 -1.25322,-5.0629 -4.54976,-10.6692 -4.01727,-13.80255 1.25322,-20.10521 1.14397,-1.36801 -2.1546,-2.73143 -4.83094,-2.73143 z"
       id="rect4860"
       inkscape:connector-curvature="0"
       sodipodi:nodetypes="sssssssssss" />
    <path
       style="fill:#2acdff;fill-opacity:1;stroke:#000000;stroke-width:1.0749855;stroke-linejoin:bevel;stroke-miterlimit:4;stroke-dasharray:none;stroke-opacity:1"
       d="m 25.022242,994.0037 c 0,7.3505 10.24193,1.36506 23.71793,1.36506 13.47601,0 25.083,5.98544 25.083,-1.36506 0,-7.35055 -10.92446,-21.84098 -24.40047,-21.84098 -13.476,0 -24.40046,14.49043 -24.40046,21.84098 z"
       id="path4857"
       inkscape:connector-curvature="0"
       sodipodi:nodetypes="sssss" />
    <circle
       style="fill:#ffffff;fill-opacity:1;stroke:#000000;stroke-width:0.71665698;stroke-linejoin:bevel;stroke-miterlimit:4;stroke-dasharray:none;stroke-opacity:1"
       id="path5403"
       cx="-64.01812"
       cy="989.74219"
       r="2.6544206"
       transform="scale(-1,1)" />
    <ellipse
       style="fill:#ffffff;fill-opacity:1;stroke:#000000;stroke-width:0.94424003;stroke-linejoin:bevel;stroke-miterlimit:4;stroke-dasharray:none;stroke-opacity:1"
       id="path5403-7"
       cx="-54.423706"
       cy="978.9425"
       rx="4.6885457"
       ry="3.7962494"
       transform="scale(-1,1)" />
    <circle
       style="fill:#ffffff;fill-opacity:1;stroke:#000000;stroke-width:0.71665698;stroke-linejoin:bevel;stroke-miterlimit:4;stroke-dasharray:none;stroke-opacity:1"
       id="path5403-8"
       cx="-45.025223"
       cy="988.25293"
       r="2.6544206"
       transform="scale(-1,1)" />
    <circle
       style="fill:#ffffff;fill-opacity:1;stroke:#000000;stroke-width:0.71665698;stroke-linejoin:bevel;stroke-miterlimit:4;stroke-dasharray:none;stroke-opacity:1"
       id="path5403-3"
       cx="-34.960831"
       cy="984.56256"
       r="2.6544206"
       transform="scale(-1,1)" />
    <path
       style="fill:url(#linearGradient5441);fill-opacity:1;stroke:none;stroke-width:3.88577771;stroke-linejoin:bevel;stroke-miterlimit:4;stroke-dasharray:none;stroke-opacity:1"
       d="m 53.959952,997.05521 c -1.04976,-0.61908 -2.57212,0.72905 -3.19569,1.77614 -1.26633,2.12635 -0.86836,5.07835 -0.0797,7.42425 0.42757,1.2719 1.12558,3.1205 2.46601,3.1817 1.5919,0.073 3.09588,-1.9111 3.26073,-3.4961 0.16419,-1.5787 -2.03742,-2.5465 -2.46168,-4.0759 -0.42857,-1.545 1.39146,-3.99562 0.0104,-4.81009 z"
       id="rect5432"
       inkscape:connector-curvature="0"
       sodipodi:nodetypes="sssssss" />
    <path
       style="fill:url(#linearGradient5441-3);fill-opacity:1;stroke:none;stroke-width:3.88577771;stroke-linejoin:bevel;stroke-miterlimit:4;stroke-dasharray:none;stroke-opacity:1"
       d="m 54.737172,976.53747 c 0.37268,-1.58451 -2.25827,-2.63674 -3.84151,-3.01477 -3.57519,-0.85365 -7.57957,0.40922 -10.81457,2.15434 -1.52458,0.82244 -3.99957,2.00562 -3.64746,3.70172 0.46504,2.24008 4.1018,2.90076 6.36523,2.56745 2.09142,-0.30798 3.03499,-3.06741 4.94797,-3.96706 2.15295,-1.01251 6.44562,0.87428 6.99034,-1.44168 z"
       id="rect5432-0"
       inkscape:connector-curvature="0"
       sodipodi:nodetypes="sssssss" />
  </g>
</svg>
