<?xml version="1.0" encoding="UTF-8" standalone="no"?>
<!-- Created with Inkscape (http://www.inkscape.org/) -->

<svg
   xmlns:dc="http://purl.org/dc/elements/1.1/"
   xmlns:cc="http://creativecommons.org/ns#"
   xmlns:rdf="http://www.w3.org/1999/02/22-rdf-syntax-ns#"
   xmlns:svg="http://www.w3.org/2000/svg"
   xmlns="http://www.w3.org/2000/svg"
   xmlns:sodipodi="http://sodipodi.sourceforge.net/DTD/sodipodi-0.dtd"
   xmlns:inkscape="http://www.inkscape.org/namespaces/inkscape"
   width="100.09449"
   height="100.3622"
   viewBox="0 0 100.09449 100.3622"
   id="svg4849"
   version="1.1"
   inkscape:version="0.91 r13725"
   sodipodi:docname="grass.svg"
   inkscape:export-filename="C:\Users\Yavor\Desktop\Bad Mushrooms\images\grass.png"
   inkscape:export-xdpi="90"
   inkscape:export-ydpi="90">
  <defs
     id="defs4851" />
  <sodipodi:namedview
     id="base"
     pagecolor="#ffffff"
     bordercolor="#666666"
     borderopacity="1.0"
     inkscape:pageopacity="0.0"
     inkscape:pageshadow="2"
     inkscape:zoom="5.6568542"
     inkscape:cx="38.798778"
     inkscape:cy="34.807286"
     inkscape:document-units="px"
     inkscape:current-layer="layer1"
     showgrid="false"
     inkscape:window-width="1280"
     inkscape:window-height="737"
     inkscape:window-x="-8"
     inkscape:window-y="-8"
     inkscape:window-maximized="1"
     units="px" />
  <metadata
     id="metadata4854">
    <rdf:RDF>
      <cc:Work
         rdf:about="">
        <dc:format>image/svg+xml</dc:format>
        <dc:type
           rdf:resource="http://purl.org/dc/dcmitype/StillImage" />
        <dc:title></dc:title>
      </cc:Work>
    </rdf:RDF>
  </metadata>
  <g
     inkscape:label="Layer 1"
     inkscape:groupmode="layer"
     id="layer1"
     transform="translate(0,-951.99996)">
    <path
       style="fill:#5c936a;fill-opacity:1;fill-rule:evenodd;stroke:none;stroke-width:1px;stroke-linecap:butt;stroke-linejoin:miter;stroke-opacity:1"
       d="m 39.999897,1035.1869 3.713845,-2.4502 9.258395,0.3273 8.996879,2.6283 8.159958,1.2131 -12.135324,0.7076 -9.206106,-0.7076 -6.48612,0.5054 z"
       id="path5683"
       inkscape:connector-curvature="0"
       sodipodi:nodetypes="ccccccccc" />
    <path
       style="fill:#5c936a;fill-opacity:1;fill-rule:evenodd;stroke:none;stroke-width:1px;stroke-linecap:butt;stroke-linejoin:miter;stroke-opacity:1"
       d="m 29.458432,1035.3 3.713844,-2.4502 9.258397,0.3273 8.996878,2.6283 8.159959,1.2131 -12.135324,0.7076 -9.206106,-0.7076 -6.486121,0.5054 z"
       id="path5683-2"
       inkscape:connector-curvature="0"
       sodipodi:nodetypes="ccccccccc" />
    <path
       style="fill:#67da84;fill-opacity:1;fill-rule:evenodd;stroke:#10c546;stroke-width:0.27661377px;stroke-linecap:butt;stroke-linejoin:miter;stroke-opacity:1"
       d="m 43.938286,1035.1229 4.102691,0.9393 1.455792,-4.6973 -0.397034,-5.1313 -3.308619,-4.3361 -0.132348,4.6976 -1.323448,4.4083 -1.720482,2.674 z"
       id="path5624-3-5"
       inkscape:connector-curvature="0" />
    <path
       style="fill:#1cf253;fill-opacity:1;fill-rule:evenodd;stroke:#008f29;stroke-width:0.31237876;stroke-linecap:butt;stroke-linejoin:miter;stroke-miterlimit:4;stroke-dasharray:none;stroke-opacity:1"
       d="m 49.803789,1020.6787 -2.616923,9.993 0.872309,4.8703 6.542302,-1.0916 -3.925381,-6.6339 z"
       id="path5622-1-3"
       inkscape:connector-curvature="0" />
    <path
       style="fill:#1cf253;fill-opacity:1;fill-rule:evenodd;stroke:#008f29;stroke-width:0.31909958;stroke-linecap:butt;stroke-linejoin:miter;stroke-miterlimit:4;stroke-dasharray:none;stroke-opacity:1"
       d="m 51.78316,1035.6559 4.497581,1.1416 1.595912,-5.7075 -0.43525,-6.2344 -3.62708,-5.2685 -0.145081,5.7074 -1.450831,5.3563 -1.886084,3.2489 z"
       id="path5624-5-5"
       inkscape:connector-curvature="0" />
    <path
       style="fill:#67da84;fill-opacity:1;fill-rule:evenodd;stroke:#10c546;stroke-width:0.32247886px;stroke-linecap:butt;stroke-linejoin:miter;stroke-opacity:1"
       d="m 56.064135,1035.2964 5.331947,0.9824 1.89198,-4.9124 -0.515994,-5.3659 -4.299958,-4.5346 -0.171998,4.9123 -1.719983,4.6103 -2.235977,2.7964 z"
       id="path5624-3"
       inkscape:connector-curvature="0" />
    <path
       style="fill:#1cf253;fill-opacity:1;fill-rule:evenodd;stroke:#008f29;stroke-width:0.38172933;stroke-linecap:butt;stroke-linejoin:miter;stroke-miterlimit:4;stroke-dasharray:none;stroke-opacity:1"
       d="m 63.663743,1020.0218 -3.390033,11.5192 1.13001,5.6144 8.475085,-1.2584 -5.085051,-7.6472 z"
       id="path5622-1"
       inkscape:connector-curvature="0" />
    <path
       style="fill:#1cf253;fill-opacity:1;fill-rule:evenodd;stroke:#008f29;stroke-width:0.38172933;stroke-linecap:butt;stroke-linejoin:miter;stroke-miterlimit:4;stroke-dasharray:none;stroke-opacity:1"
       d="m 63.332974,1036.5297 5.838393,1.2584 2.071683,-6.2921 -0.565005,-6.8728 -4.708378,-5.808 -0.188336,6.292 -1.883352,5.9048 -2.448357,3.5816 z"
       id="path5624-5"
       inkscape:connector-curvature="0" />
    <path
       style="fill:#67da84;fill-opacity:1;fill-rule:evenodd;stroke:#10c546;stroke-width:0.31566036px;stroke-linecap:butt;stroke-linejoin:miter;stroke-opacity:1"
       d="m 31.21087,1035.112 5.334871,0.9408 1.893018,-4.7042 -0.516278,-5.1387 -4.302314,-4.3425 -0.172093,4.7043 -1.720927,4.415 -2.237202,2.6778 z"
       id="path5624-3-7"
       inkscape:connector-curvature="0" />
    <path
       style="fill:#1cf253;fill-opacity:1;fill-rule:evenodd;stroke:#008f29;stroke-width:0.37365803;stroke-linecap:butt;stroke-linejoin:miter;stroke-miterlimit:4;stroke-dasharray:none;stroke-opacity:1"
       d="m 37.466295,1019.9541 -3.391892,11.0313 1.130631,5.3765 8.479731,-1.205 -5.087839,-7.3233 z"
       id="path5622-1-8"
       inkscape:connector-curvature="0" />
    <path
       style="fill:#1cf253;fill-opacity:1;fill-rule:evenodd;stroke:#008f29;stroke-width:0.37365803;stroke-linecap:butt;stroke-linejoin:miter;stroke-miterlimit:4;stroke-dasharray:none;stroke-opacity:1"
       d="m 37.369159,1036.1237 5.841595,1.2051 2.072819,-6.0255 -0.565314,-6.5816 -4.710961,-5.562 -0.188439,6.0255 -1.884384,5.6545 -2.449701,3.43 z"
       id="path5624-5-3"
       inkscape:connector-curvature="0" />
  </g>
</svg>
